<svg xmlns="http://www.w3.org/2000/svg" viewBox="0 0 331 99" role="img" aria-labelledby="signature-title">
<title id="signature-title">Jake Hooper signature</title>
<path fill="#111" d="
M154 8h5v1h-5z M204 8h5v1h-5z M153 9h7v1h-7z M203 9h7v1h-7z M152 10h8v1h-8z M202 10h8v1h-8z M149 11h11v1h-11z M179 11h4v1h-4z M201 11h8v1h-8z M147 12h13v1h-13z M178 12h6v1h-6z M200 12h9v1h-9z M146 13h13v1h-13z M177 13h7v1h-7z M198 13h11v1h-11z M89 14h12v1h-12z M142 14h16v1h-16z M175 14h9v1h-9z M197 14h11v1h-11z M88 15h14v1h-14z M141 15h16v1h-16z M174 15h10v1h-10z M196 15h11v1h-11z M87 16h15v1h-15z M140 16h16v1h-16z M173 16h11v1h-11z M195 16h11v1h-11z M79 17h23v1h-23z M136 17h19v1h-19z M171 17h12v1h-12z M193 17h12v1h-12z M320 17h2v1h-2z M78 18h24v1h-24z M135 18h19v1h-19z M170 18h9v1h-9z M192 18h11v1h-11z M319 18h4v1h-4z M77 19h25v1h-25z M134 19h19v1h-19z M168 19h10v1h-10z M190 19h12v1h-12z M319 19h4v1h-4z M71 20h31v1h-31z M129 20h23v1h-23z M166 20h11v1h-11z M188 20h12v1h-12z M302 20h6v1h-6z M320 20h2v1h-2z M70 21h13v1h-13z M93 21h8v1h-8z M128 21h23v1h-23z M165 21h11v1h-11z M187 21h11v1h-11z M301 21h8v1h-8z M69 22h13v1h-13z M93 22h8v1h-8z M127 22h23v1h-23z M164 22h11v1h-11z M186 22h11v1h-11z M300 22h9v1h-9z M65 23h16v1h-16z M92 23h8v1h-8z M104 23h6v1h-6z M116 23h33v1h-33z M163 23h11v1h-11z M184 23h12v1h-12z M298 23h10v1h-10z M64 24h10v1h-10z M91 24h8v1h-8z M103 24h8v1h-8z M115 24h20v1h-20z M137 24h11v1h-11z M162 24h11v1h-11z M183 24h12v1h-12z M297 24h8v1h-8z M63 25h10v1h-10z M90 25h9v1h-9z M102 25h31v1h-31z M138 25h9v1h-9z M161 25h11v1h-11z M182 25h13v1h-13z M295 25h9v1h-9z M58 26h14v1h-14z M89 26h43v1h-43z M138 26h8v1h-8z M160 26h11v1h-11z M179 26h26v1h-26z M232 26h7v1h-7z M292 26h11v1h-11z M57 27h11v1h-11z M88 27h41v1h-41z M138 27h7v1h-7z M159 27h9v1h-9z M178 27h28v1h-28z M231 27h9v1h-9z M291 27h9v1h-9z M56 28h11v1h-11z M87 28h41v1h-41z M138 28h6v1h-6z M158 28h9v1h-9z M177 28h30v1h-30z M230 28h10v1h-10z M259 28h5v1h-5z M289 28h10v1h-10z M52 29h14v1h-14z M86 29h41v1h-41z M139 29h4v1h-4z M157 29h9v1h-9z M169 29h71v1h-71z M255 29h12v1h-12z M286 29h12v1h-12z M51 30h10v1h-10z M85 30h38v1h-38z M156 30h8v1h-8z M168 30h72v1h-72z M253 30h15v1h-15z M284 30h11v1h-11z M50 31h10v1h-10z M84 31h38v1h-38z M155 31h8v1h-8z M168 31h72v1h-72z M252 31h17v1h-17z M283 31h11v1h-11z M46 32h13v1h-13z M83 32h38v1h-38z M153 32h9v1h-9z M167 32h72v1h-72z M249 32h25v1h-25z M276 32h16v1h-16z M45 33h10v1h-10z M82 33h35v1h-35z M151 33h10v1h-10z M166 33h21v1h-21z M192 33h45v1h-45z M248 33h11v1h-11z M264 33h26v1h-26z M44 34h10v1h-10z M81 34h14v1h-14z M97 34h19v1h-19z M150 34h10v1h-10z M165 34h20v1h-20z M193 34h43v1h-43z M246 34h11v1h-11z M265 34h23v1h-23z M44 35h9v1h-9z M77 35h17v1h-17z M98 35h17v1h-17z M148 35h11v1h-11z M163 35h20v1h-20z M193 35h42v1h-42z M244 35h11v1h-11z M266 35h21v1h-21z M44 36h5v1h-5z M76 36h13v1h-13z M147 36h10v1h-10z M162 36h17v1h-17z M193 36h30v1h-30z M226 36h9v1h-9z M243 36h8v1h-8z M269 36h15v1h-15z M44 37h3v1h-3z M75 37h12v1h-12z M146 37h11v1h-11z M161 37h17v1h-17z M193 37h14v1h-14z M208 37h14v1h-14z M226 37h8v1h-8z M242 37h8v1h-8z M271 37h10v1h-10z M71 38h15v1h-15z M145 38h32v1h-32z M193 38h12v1h-12z M209 38h12v1h-12z M225 38h8v1h-8z M240 38h9v1h-9z M272 38h6v1h-6z M70 39h13v1h-13z M144 39h31v1h-31z M194 39h10v1h-10z M210 39h9v1h-9z M224 39h8v1h-8z M239 39h8v1h-8z M69 40h13v1h-13z M143 40h31v1h-31z M195 40h8v1h-8z M211 40h6v1h-6z M224 40h7v1h-7z M237 40h9v1h-9z M65 41h16v1h-16z M142 41h31v1h-31z M197 41h5v1h-5z M212 41h4v1h-4z M223 41h7v1h-7z M235 41h9v1h-9z M64 42h16v1h-16z M141 42h17v1h-17z M162 42h11v1h-11z M223 42h6v1h-6z M234 42h8v1h-8z M63 43h15v1h-15z M139 43h18v1h-18z M162 43h10v1h-10z M223 43h5v1h-5z M233 43h8v1h-8z M62 44h14v1h-14z M138 44h17v1h-17z M161 44h10v1h-10z M222 44h6v1h-6z M232 44h7v1h-7z M58 45h17v1h-17z M136 45h17v1h-17z M160 45h10v1h-10z M221 45h7v1h-7z M231 45h7v1h-7z M57 46h17v1h-17z M135 46h16v1h-16z M159 46h10v1h-10z M220 46h8v1h-8z M229 46h8v1h-8z M56 47h17v1h-17z M135 47h15v1h-15z M158 47h11v1h-11z M219 47h17v1h-17z M55 48h17v1h-17z M134 48h15v1h-15z M156 48h13v1h-13z M219 48h16v1h-16z M54 49h17v1h-17z M134 49h9v1h-9z M155 49h13v1h-13z M218 49h16v1h-16z M53 50h17v1h-17z M134 50h7v1h-7z M154 50h13v1h-13z M217 50h16v1h-16z M49 51h20v1h-20z M135 51h5v1h-5z M153 51h14v1h-14z M217 51h15v1h-15z M48 52h18v1h-18z M152 52h14v1h-14z M217 52h14v1h-14z M47 53h18v1h-18z M151 53h15v1h-15z M217 53h13v1h-13z M46 54h18v1h-18z M150 54h15v1h-15z M217 54h12v1h-12z M45 55h17v1h-17z M149 55h15v1h-15z M217 55h9v1h-9z M44 56h17v1h-17z M148 56h15v1h-15z M217 56h8v1h-8z M42 57h18v1h-18z M147 57h15v1h-15z M217 57h7v1h-7z M41 58h18v1h-18z M146 58h15v1h-15z M216 58h6v1h-6z M40 59h18v1h-18z M145 59h15v1h-15z M217 59h4v1h-4z M37 60h20v1h-20z M144 60h16v1h-16z M218 60h2v1h-2z M36 61h19v1h-19z M143 61h16v1h-16z M35 62h19v1h-19z M143 62h15v1h-15z M33 63h19v1h-19z M142 63h15v1h-15z M32 64h18v1h-18z M141 64h15v1h-15z M31 65h18v1h-18z M140 65h15v1h-15z M29 66h19v1h-19z M140 66h14v1h-14z M28 67h18v1h-18z M140 67h11v1h-11z M26 68h19v1h-19z M140 68h10v1h-10z M25 69h19v1h-19z M141 69h8v1h-8z M24 70h19v1h-19z M144 70h2v1h-2z M23 71h18v1h-18z M21 72h19v1h-19z M20 73h17v1h-17z M19 74h17v1h-17z M18 75h17v1h-17z M17 76h17v1h-17z M16 77h16v1h-16z M15 78h16v1h-16z M14 79h16v1h-16z M13 80h15v1h-15z M12 81h15v1h-15z M11 82h15v1h-15z M11 83h14v1h-14z M10 84h14v1h-14z M8 85h15v1h-15z M8 86h13v1h-13z M8 87h12v1h-12z M9 88h10v1h-10z M10 89h5v1h-5z M11 90h3v1h-3z
"/>
</svg>